<mxfile host="Electron" modified="2024-02-08T11:06:08.808Z" agent="Mozilla/5.0 (Windows NT 10.0; Win64; x64) AppleWebKit/537.36 (KHTML, like Gecko) draw.io/21.7.5 Chrome/114.0.5735.289 Electron/25.8.1 Safari/537.36" etag="mtz5RTkjVWZIsab87sei" version="21.7.5" type="device">
  <diagram name="Page-1" id="pUfmrkO9aLYyR68ovqO-">
    <mxGraphModel dx="1418" dy="820" grid="1" gridSize="10" guides="1" tooltips="1" connect="1" arrows="1" fold="1" page="1" pageScale="1" pageWidth="850" pageHeight="1100" math="0" shadow="0">
      <root>
        <mxCell id="0" />
        <mxCell id="1" parent="0" />
        <mxCell id="be1sLppTMIZ8gOw3Xr52-1" value="" style="rounded=1;whiteSpace=wrap;html=1;" vertex="1" parent="1">
          <mxGeometry x="80" y="120" width="720" height="370" as="geometry" />
        </mxCell>
        <mxCell id="be1sLppTMIZ8gOw3Xr52-2" value="" style="image;aspect=fixed;html=1;points=[];align=center;fontSize=12;image=img/lib/azure2/general/Resource_Groups.svg;" vertex="1" parent="1">
          <mxGeometry x="560" y="470" width="42.5" height="40" as="geometry" />
        </mxCell>
        <mxCell id="be1sLppTMIZ8gOw3Xr52-3" value="demo-projm2024-rg" style="text;html=1;strokeColor=none;fillColor=default;align=center;verticalAlign=middle;whiteSpace=wrap;rounded=0;" vertex="1" parent="1">
          <mxGeometry x="610" y="475" width="110" height="30" as="geometry" />
        </mxCell>
        <mxCell id="be1sLppTMIZ8gOw3Xr52-6" value="" style="rounded=1;whiteSpace=wrap;html=1;dashed=1;" vertex="1" parent="1">
          <mxGeometry x="473" y="160" width="277" height="290" as="geometry" />
        </mxCell>
        <mxCell id="be1sLppTMIZ8gOw3Xr52-4" value="" style="image;aspect=fixed;html=1;points=[];align=center;fontSize=12;image=img/lib/azure2/storage/Storage_Accounts.svg;" vertex="1" parent="1">
          <mxGeometry x="530" y="433" width="37.5" height="30" as="geometry" />
        </mxCell>
        <mxCell id="be1sLppTMIZ8gOw3Xr52-7" value="demoprojm2024sa" style="text;html=1;strokeColor=none;fillColor=default;align=center;verticalAlign=middle;whiteSpace=wrap;rounded=0;" vertex="1" parent="1">
          <mxGeometry x="590" y="433" width="110" height="30" as="geometry" />
        </mxCell>
        <mxCell id="be1sLppTMIZ8gOw3Xr52-9" value="" style="rounded=1;whiteSpace=wrap;html=1;dashed=1;dashPattern=1 4;" vertex="1" parent="1">
          <mxGeometry x="495.5" y="190" width="222" height="200" as="geometry" />
        </mxCell>
        <mxCell id="be1sLppTMIZ8gOw3Xr52-8" value="" style="image;aspect=fixed;html=1;points=[];align=center;fontSize=12;image=img/lib/azure2/storage/Azure_Fileshare.svg;" vertex="1" parent="1">
          <mxGeometry x="527.5" y="368" width="40" height="40" as="geometry" />
        </mxCell>
        <mxCell id="be1sLppTMIZ8gOw3Xr52-10" value="demo-projm2024-fs" style="text;html=1;strokeColor=none;fillColor=default;align=center;verticalAlign=middle;whiteSpace=wrap;rounded=0;" vertex="1" parent="1">
          <mxGeometry x="580" y="373" width="110" height="30" as="geometry" />
        </mxCell>
        <mxCell id="be1sLppTMIZ8gOw3Xr52-11" value="" style="image;aspect=fixed;html=1;points=[];align=center;fontSize=12;image=img/lib/azure2/general/Folder_Blank.svg;" vertex="1" parent="1">
          <mxGeometry x="577" y="262" width="69" height="56.00000000000001" as="geometry" />
        </mxCell>
        <mxCell id="be1sLppTMIZ8gOw3Xr52-12" value="web-dir" style="text;html=1;strokeColor=none;fillColor=default;align=center;verticalAlign=middle;whiteSpace=wrap;rounded=0;" vertex="1" parent="1">
          <mxGeometry x="556.5" y="318" width="110" height="30" as="geometry" />
        </mxCell>
        <mxCell id="be1sLppTMIZ8gOw3Xr52-22" style="edgeStyle=orthogonalEdgeStyle;rounded=0;orthogonalLoop=1;jettySize=auto;html=1;exitX=1;exitY=0.75;exitDx=0;exitDy=0;entryX=0;entryY=0.75;entryDx=0;entryDy=0;startArrow=ERmany;startFill=0;" edge="1" parent="1" source="be1sLppTMIZ8gOw3Xr52-13" target="be1sLppTMIZ8gOw3Xr52-6">
          <mxGeometry relative="1" as="geometry" />
        </mxCell>
        <mxCell id="be1sLppTMIZ8gOw3Xr52-13" value="" style="rounded=1;whiteSpace=wrap;html=1;dashed=1;" vertex="1" parent="1">
          <mxGeometry x="130" y="160" width="270" height="290" as="geometry" />
        </mxCell>
        <mxCell id="be1sLppTMIZ8gOw3Xr52-14" value="" style="image;aspect=fixed;html=1;points=[];align=center;fontSize=12;image=img/lib/azure2/networking/Virtual_Networks.svg;" vertex="1" parent="1">
          <mxGeometry x="200" y="433" width="50.25" height="30" as="geometry" />
        </mxCell>
        <mxCell id="be1sLppTMIZ8gOw3Xr52-15" value="demo-projm2024-vnet" style="text;html=1;strokeColor=none;fillColor=default;align=center;verticalAlign=middle;whiteSpace=wrap;rounded=0;" vertex="1" parent="1">
          <mxGeometry x="260" y="433" width="110" height="30" as="geometry" />
        </mxCell>
        <mxCell id="be1sLppTMIZ8gOw3Xr52-24" style="edgeStyle=orthogonalEdgeStyle;rounded=0;orthogonalLoop=1;jettySize=auto;html=1;exitX=-0.004;exitY=0.28;exitDx=0;exitDy=0;exitPerimeter=0;endArrow=oval;endFill=0;startArrow=oval;startFill=0;" edge="1" parent="1" source="be1sLppTMIZ8gOw3Xr52-16" target="be1sLppTMIZ8gOw3Xr52-19">
          <mxGeometry relative="1" as="geometry">
            <mxPoint x="230" y="310" as="sourcePoint" />
          </mxGeometry>
        </mxCell>
        <mxCell id="be1sLppTMIZ8gOw3Xr52-16" value="" style="image;aspect=fixed;html=1;points=[];align=center;fontSize=12;image=img/lib/azure2/compute/Virtual_Machine.svg;" vertex="1" parent="1">
          <mxGeometry x="230.5" y="284" width="69" height="64" as="geometry" />
        </mxCell>
        <mxCell id="be1sLppTMIZ8gOw3Xr52-17" value="demo-projm2024-vm" style="text;html=1;strokeColor=none;fillColor=default;align=center;verticalAlign=middle;whiteSpace=wrap;rounded=0;" vertex="1" parent="1">
          <mxGeometry x="195" y="360" width="140" height="30" as="geometry" />
        </mxCell>
        <mxCell id="be1sLppTMIZ8gOw3Xr52-18" value="" style="image;aspect=fixed;html=1;points=[];align=center;fontSize=12;image=img/lib/azure2/networking/Network_Security_Groups.svg;" vertex="1" parent="1">
          <mxGeometry x="244.41" y="180" width="41.18" height="50" as="geometry" />
        </mxCell>
        <mxCell id="be1sLppTMIZ8gOw3Xr52-19" value="" style="image;aspect=fixed;html=1;points=[];align=center;fontSize=12;image=img/lib/azure2/networking/Public_IP_Addresses.svg;" vertex="1" parent="1">
          <mxGeometry x="150" y="286" width="40" height="32" as="geometry" />
        </mxCell>
        <mxCell id="be1sLppTMIZ8gOw3Xr52-20" value="" style="image;aspect=fixed;html=1;points=[];align=center;fontSize=12;image=img/lib/azure2/networking/Firewalls.svg;" vertex="1" parent="1">
          <mxGeometry x="440" y="350" width="47.33" height="40" as="geometry" />
        </mxCell>
        <mxCell id="be1sLppTMIZ8gOw3Xr52-21" value="ACCESS from demo-projm2024-vnet&lt;br&gt;ONLY" style="text;html=1;strokeColor=none;fillColor=default;align=center;verticalAlign=middle;whiteSpace=wrap;rounded=0;" vertex="1" parent="1">
          <mxGeometry x="387.5" y="398" width="140" height="30" as="geometry" />
        </mxCell>
        <mxCell id="be1sLppTMIZ8gOw3Xr52-23" value="demo-projm2024-pubIP" style="text;html=1;strokeColor=none;fillColor=default;align=center;verticalAlign=middle;whiteSpace=wrap;rounded=0;" vertex="1" parent="1">
          <mxGeometry x="130" y="330" width="80" height="30" as="geometry" />
        </mxCell>
        <mxCell id="be1sLppTMIZ8gOw3Xr52-25" value="demo-projm2024-nsg" style="text;html=1;strokeColor=none;fillColor=default;align=center;verticalAlign=middle;whiteSpace=wrap;rounded=0;" vertex="1" parent="1">
          <mxGeometry x="290" y="190" width="80" height="30" as="geometry" />
        </mxCell>
        <mxCell id="be1sLppTMIZ8gOw3Xr52-29" style="edgeStyle=orthogonalEdgeStyle;rounded=0;orthogonalLoop=1;jettySize=auto;html=1;" edge="1" parent="1" source="be1sLppTMIZ8gOw3Xr52-27" target="be1sLppTMIZ8gOw3Xr52-18">
          <mxGeometry relative="1" as="geometry" />
        </mxCell>
        <mxCell id="be1sLppTMIZ8gOw3Xr52-27" value="" style="verticalLabelPosition=bottom;sketch=0;html=1;fillColor=#1782DB;strokeColor=none;verticalAlign=top;pointerEvents=1;align=center;shape=mxgraph.cisco_safe.iot_things_icons.icon47;" vertex="1" parent="1">
          <mxGeometry x="240" y="10" width="50" height="50" as="geometry" />
        </mxCell>
        <mxCell id="be1sLppTMIZ8gOw3Xr52-30" value="ALLOW INBOUND:&lt;br&gt;web: 80/TCP, 443/TCP&lt;br&gt;ssh: 22/TCP" style="text;html=1;strokeColor=none;fillColor=default;align=center;verticalAlign=middle;whiteSpace=wrap;rounded=0;" vertex="1" parent="1">
          <mxGeometry x="195" y="90" width="140" height="50" as="geometry" />
        </mxCell>
        <mxCell id="be1sLppTMIZ8gOw3Xr52-31" value="Internet" style="text;html=1;strokeColor=none;fillColor=default;align=center;verticalAlign=middle;whiteSpace=wrap;rounded=0;" vertex="1" parent="1">
          <mxGeometry x="299.5" y="20" width="80" height="30" as="geometry" />
        </mxCell>
      </root>
    </mxGraphModel>
  </diagram>
</mxfile>
